<?xml version="1.0" encoding="UTF-8" standalone="no"?>
<svg width="15px" height="12px" viewBox="0 0 15 12" version="1.1" xmlns="http://www.w3.org/2000/svg" xmlns:xlink="http://www.w3.org/1999/xlink">
    <!-- Generator: Sketch 41.2 (35397) - http://www.bohemiancoding.com/sketch -->
    <title>arrows-back</title>
    <desc>Created with Sketch.</desc>
    <defs></defs>
    <g id="Page-1" stroke="none" stroke-width="1" fill="none" fill-rule="evenodd">
        <g id="arrows-back" fill="#2078BB">
            <g id="Inventory">
                <g id="Icons">
                    <g id="outline">
                        <g id="icons/stroked/arrows-back">
                            <path d="M14.2105263,5.94395253 L1.128,5.94395253 L6.21347368,1.14886297 C6.34168421,1.02755627 6.35021053,0.821903507 6.23242105,0.690172011 C6.11463158,0.558124615 5.91505263,0.548331626 5.78652632,0.670270131 L0.102315789,6.0295622 C0.101052632,6.03114172 0.100421053,6.03303714 0.0988421053,6.03461665 C0.0748421053,6.05799346 0.0574736842,6.08674062 0.0413684211,6.11675139 C0.0372631579,6.12496487 0.03,6.13128292 0.0262105263,6.14012821 C0.00978947368,6.17961606 0,6.22289476 0,6.26870067 C0,6.31450659 0.00978947368,6.35810116 0.0262105263,6.39758905 C0.03,6.4061184 0.0372631579,6.41243646 0.0413684211,6.42064996 C0.0574736842,6.45097661 0.0748421053,6.47940789 0.0988421053,6.50310057 C0.100421053,6.50468008 0.101052632,6.50657552 0.102315789,6.50783912 L5.78557895,11.8658676 C5.84589474,11.9236779 5.92231579,11.9514773 5.99873684,11.9514773 C6.084,11.9514773 6.16894737,11.9160961 6.23147368,11.8462816 C6.34926316,11.7142342 6.34042105,11.5088973 6.21189474,11.3875907 L1.128,6.59344882 L14.2105263,6.59344882 C14.3851579,6.59344882 14.5263158,6.44844941 14.5263158,6.26870067 C14.5263158,6.08926784 14.3851579,5.94395253 14.2105263,5.94395253" id="icons/stroked/arrows/back"></path>
                        </g>
                    </g>
                </g>
            </g>
        </g>
    </g>
</svg>