<?xml version="1.0" encoding="UTF-8" standalone="no"?>
<svg width="24px" height="24px" viewBox="0 0 24 24" version="1.1" xmlns="http://www.w3.org/2000/svg" xmlns:xlink="http://www.w3.org/1999/xlink" xmlns:sketch="http://www.bohemiancoding.com/sketch/ns">
    <!-- Generator: Sketch 3.2.2 (9983) - http://www.bohemiancoding.com/sketch -->
    <title>icons/stroked/close</title>
    <desc>Created with Sketch.</desc>
    <defs></defs>
    <g id="Inventory" stroke="none" stroke-width="1" fill="none" fill-rule="evenodd" sketch:type="MSPage">
        <g id="Icons" sketch:type="MSArtboardGroup" transform="translate(-24.000000, -180.000000)" fill="#0D161D">
            <g id="outline" sketch:type="MSLayerGroup" transform="translate(24.000000, 25.000000)">
                <g id="icons/stroked/close" transform="translate(0.000000, 155.000000)" sketch:type="MSShapeGroup">
                    <path d="M12.9405,12.3140553 L23.5455,1.68373968 C23.74,1.48916984 23.74,1.17305637 23.5455,0.977986355 C23.351,0.783416517 23.0355,0.783416517 22.841,0.977986355 L12.236,11.6078018 L1.631,0.977986355 C1.4365,0.783416517 1.121,0.783416517 0.927,0.977986355 C0.732,1.17305637 0.732,1.48916984 0.927,1.68373968 L11.532,12.3140553 L0.927,22.9428704 C0.732,23.1379404 0.732,23.4540539 0.927,23.6491239 C1.024,23.7466589 1.1515,23.7951763 1.2785,23.7951763 C1.4065,23.7951763 1.534,23.7466589 1.631,23.6491239 L12.236,13.0193084 L22.841,23.6491239 C22.9385,23.7466589 23.066,23.7951763 23.1935,23.7951763 C23.3205,23.7951763 23.448,23.7466589 23.5455,23.6491239 C23.74,23.4540539 23.74,23.1379404 23.5455,22.9428704 L12.9405,12.3140553"></path>
                </g>
            </g>
        </g>
    </g>
</svg>