<?xml version="1.0" encoding="UTF-8" standalone="no"?>
<svg width="25px" height="25px" viewBox="0 0 25 25" version="1.1" xmlns="http://www.w3.org/2000/svg" xmlns:xlink="http://www.w3.org/1999/xlink" xmlns:sketch="http://www.bohemiancoding.com/sketch/ns">
    <!-- Generator: Sketch 3.2.2 (9983) - http://www.bohemiancoding.com/sketch -->
    <title>icons/stroked/download</title>
    <desc>Created with Sketch.</desc>
    <defs></defs>
    <g id="Inventory" stroke="none" stroke-width="1" fill="none" fill-rule="evenodd" sketch:type="MSPage">
        <g id="Icons" sketch:type="MSArtboardGroup" transform="translate(-24.000000, -260.000000)" fill="#0D161D">
            <g id="outline" sketch:type="MSLayerGroup" transform="translate(24.000000, 25.000000)">
                <g id="icons/stroked/download" transform="translate(0.000000, 235.000000)" sketch:type="MSShapeGroup">
                    <path d="M12.5005,0.0843806104 C5.8725,0.0843806104 0.5005,5.45880969 0.5005,12.0886894 C0.5005,18.7185691 5.8725,24.0929982 12.5005,24.0929982 C19.1275,24.0929982 24.5005,18.7185691 24.5005,12.0886894 C24.5005,5.45880969 19.1275,0.0843806104 12.5005,0.0843806104 L12.5005,0.0843806104 Z M12.5005,23.0926391 C6.4345,23.0926391 1.5,18.1563673 1.5,12.0886894 C1.5,6.02151167 6.4345,1.08473968 12.5005,1.08473968 C18.5655,1.08473968 23.5,6.02151167 23.5,12.0886894 C23.5,18.1563673 18.5655,23.0926391 12.5005,23.0926391 Z M17.1465,12.7354215 L13,16.8829102 L13,5.08617594 C13,4.81007684 12.7765,4.58599641 12.5005,4.58599641 C12.2235,4.58599641 12,4.81007684 12,5.08617594 L12,16.8734068 L7.8585,12.7304197 C7.663,12.5348496 7.3465,12.5348496 7.1515,12.7304197 C6.956,12.9254898 6.956,13.2421034 7.1515,13.4376736 L12.136,18.4239634 C12.186,18.4779828 12.246,18.5209982 12.316,18.5490083 C12.331,18.5545102 12.347,18.5535099 12.362,18.5580115 C12.407,18.5710162 12.451,18.5855214 12.5005,18.5855214 C12.501,18.5855214 12.5015,18.5850212 12.5015,18.5850212 C12.5035,18.5850212 12.504,18.5855214 12.505,18.5855214 C12.633,18.5855214 12.761,18.5370039 12.8585,18.4389688 L17.8535,13.4431756 C18.049,13.2471052 18.049,12.9309917 17.8535,12.7354215 C17.658,12.5403515 17.3415,12.5403515 17.1465,12.7354215 Z"></path>
                </g>
            </g>
        </g>
    </g>
</svg>